<svg xmlns="http://www.w3.org/2000/svg" xmlns:xlink="http://www.w3.org/1999/xlink" width="500" zoomAndPan="magnify" viewBox="0 0 375 374.999991" height="500" preserveAspectRatio="xMidYMid meet" version="1.0"><defs><g/><clipPath id="b37165a03f"><path d="M 97 20.808594 L 289 20.808594 L 289 337.308594 L 97 337.308594 Z M 97 20.808594 " clip-rule="nonzero"/></clipPath></defs><g clip-path="url(#b37165a03f)"><path fill="#ffffff" d="M 286.433594 168.855469 C 285.242188 164.8125 283.605469 160.894531 281.601562 157.183594 C 280.742188 155.597656 279.894531 153.976562 278.78125 152.546875 C 278.265625 151.878906 276.851562 150.335938 274.617188 148.90625 C 273.550781 148.226562 271.394531 146.984375 268.375 146.332031 C 266.558594 145.9375 264.992188 145.878906 263.851562 145.914062 L 249.367188 145.914062 L 249.367188 44.484375 C 249.367188 31.527344 238.816406 20.976562 225.855469 20.976562 C 212.898438 20.976562 202.347656 31.515625 202.347656 44.484375 L 202.347656 89.515625 C 199.019531 88.25 195.09375 87.5625 190.699219 87.5625 C 182.203125 87.5625 174.746094 91.726562 170.574219 97.96875 C 166.503906 94.574219 161.265625 92.523438 155.558594 92.523438 C 144.757812 92.523438 135.648438 99.851562 132.914062 109.796875 C 129.972656 108.226562 126.613281 107.335938 123.058594 107.335938 C 111.46875 107.335938 102.039062 116.761719 102.039062 128.351562 L 102.039062 137.832031 C 97.472656 161.605469 96.273438 185.195312 98.476562 207.964844 C 98.636719 209.578125 102.65625 247.675781 119.773438 264.765625 C 120.367188 265.355469 120.886719 265.835938 121.324219 266.230469 C 122.765625 267.523438 124.289062 268.757812 125.867188 269.898438 C 126.167969 270.113281 126.332031 270.4375 126.332031 270.78125 L 126.332031 313.191406 C 126.332031 326.519531 137.171875 337.359375 150.5 337.359375 L 216.589844 337.359375 C 229.917969 337.359375 240.761719 326.519531 240.761719 313.191406 L 240.761719 273.925781 C 240.761719 273.464844 240.949219 273.019531 241.285156 272.710938 C 255.246094 259.777344 299.769531 214.078125 286.425781 168.855469 Z M 214.34375 44.484375 C 214.34375 38.132812 219.503906 32.976562 225.855469 32.976562 C 232.207031 32.976562 237.367188 38.132812 237.367188 44.484375 L 237.367188 145.914062 L 214.34375 145.914062 Z M 179.050781 109.433594 C 179.050781 103.992188 184.277344 99.5625 190.699219 99.5625 C 195.050781 99.5625 202.347656 100.410156 202.347656 106.09375 L 202.347656 145.921875 L 187.785156 145.921875 C 184.679688 145.921875 181.722656 146.582031 179.050781 147.753906 Z M 144.074219 116.007812 C 144.074219 109.675781 149.222656 104.523438 155.558594 104.523438 C 161.890625 104.523438 167.042969 109.675781 167.042969 116.007812 L 167.042969 149.820312 C 167.042969 156.15625 161.890625 161.304688 155.558594 161.304688 C 149.222656 161.304688 144.074219 156.15625 144.074219 149.820312 Z M 114.039062 128.34375 C 114.039062 123.371094 118.085938 119.328125 123.054688 119.328125 C 128.027344 119.328125 132.074219 123.371094 132.074219 128.34375 L 132.074219 154.433594 C 132.074219 159.402344 128.027344 163.449219 123.054688 163.449219 C 118.085938 163.449219 114.039062 159.402344 114.039062 154.433594 Z M 233.132812 263.898438 C 230.355469 266.472656 228.761719 270.128906 228.761719 273.925781 L 228.761719 313.191406 C 228.761719 319.910156 223.308594 325.363281 216.589844 325.363281 L 150.507812 325.363281 C 143.789062 325.363281 138.339844 319.910156 138.339844 313.191406 L 138.339844 270.78125 C 138.339844 266.609375 136.308594 262.640625 132.914062 260.179688 C 131.679688 259.28125 130.46875 258.3125 129.347656 257.300781 C 129.039062 257.015625 128.671875 256.683594 128.25 256.261719 C 114.167969 242.207031 110.449219 207.101562 110.414062 206.773438 C 109.273438 194.988281 109.101562 182.957031 109.882812 170.777344 C 113.492188 173.691406 118.070312 175.441406 123.054688 175.441406 C 129.851562 175.441406 135.90625 172.191406 139.753906 167.167969 C 143.925781 170.972656 149.480469 173.304688 155.566406 173.304688 C 159.320312 173.304688 162.875 172.414062 166.03125 170.835938 L 166.03125 174.960938 C 166.03125 186.976562 175.765625 196.710938 187.785156 196.710938 L 212.8125 196.710938 C 206.355469 201.683594 200.957031 207.691406 196.921875 214.496094 C 191.726562 223.265625 188.769531 233.429688 188.238281 244.195312 C 188.066406 247.726562 190.945312 250.65625 194.476562 250.511719 C 197.570312 250.382812 200.066406 247.933594 200.21875 244.839844 C 200.570312 237.792969 202.25 229.042969 207.238281 220.609375 C 213.144531 210.640625 222.753906 202.746094 234.605469 198.023438 C 237.210938 196.988281 238.773438 194.304688 238.34375 191.527344 C 238.257812 190.945312 238.164062 190.371094 238.078125 189.789062 C 237.625 186.863281 235.113281 184.703125 232.148438 184.703125 L 187.792969 184.703125 C 182.402344 184.703125 178.03125 180.332031 178.03125 174.941406 L 178.03125 167.648438 C 178.03125 162.265625 182.394531 157.894531 187.785156 157.894531 L 264.117188 157.894531 C 265.015625 157.859375 265.890625 158 266.714844 158.289062 C 267.835938 158.683594 268.691406 159.308594 269.328125 159.925781 C 271.796875 163.851562 273.671875 167.984375 274.925781 172.234375 C 286.605469 211.832031 242.167969 255.535156 233.140625 263.890625 Z M 233.132812 263.898438 " fill-opacity="1" fill-rule="nonzero"/></g><g fill="#000000" fill-opacity="1"><g transform="translate(185.390618, 193.124987)"><g><path d="M 2.109375 0.078125 C 1.804688 0.078125 1.566406 -0.00390625 1.390625 -0.171875 C 1.222656 -0.335938 1.140625 -0.5625 1.140625 -0.84375 C 1.140625 -1.113281 1.222656 -1.332031 1.390625 -1.5 C 1.566406 -1.675781 1.804688 -1.765625 2.109375 -1.765625 C 2.410156 -1.765625 2.644531 -1.679688 2.8125 -1.515625 C 2.988281 -1.347656 3.078125 -1.128906 3.078125 -0.859375 C 3.078125 -0.578125 2.988281 -0.347656 2.8125 -0.171875 C 2.632812 -0.00390625 2.398438 0.078125 2.109375 0.078125 Z M 2.109375 0.078125 "/></g></g></g></svg>